<?xml version="1.0" encoding="UTF-8"?>
<svg id="_Слой_1" data-name="Слой 1" xmlns="http://www.w3.org/2000/svg" viewBox="0 0 1920 359.39">
  <defs>
    <style>
      .cls-1 {
        fill: #5c7a85;
      }

      .cls-1, .cls-2, .cls-3 {
        stroke-width: 0px;
      }

      .cls-2 {
        fill: #fff;
      }

      .cls-3 {
        fill: #224d5d;
      }
    </style>
  </defs>
  <circle class="cls-2" cx="22.27" cy="136.51" r="4.4"/>
  <circle class="cls-2" cx="467.73" cy="94.89" r="4.4"/>
  <circle class="cls-2" cx="690.81" cy="101.45" r="4.4"/>
  <circle class="cls-2" cx="1111.68" cy="79.96" r="4.4"/>
  <circle class="cls-2" cx="1410.03" cy="111.78" r="4.4"/>
  <circle class="cls-2" cx="1678.61" cy="130.26" r="4.4"/>
  <circle class="cls-2" cx="1872.6" cy="171.1" r="4.4"/>
  <path class="cls-2" d="m112.74,107.38c-3.44,0-6.24-2.8-6.24-6.25s2.8-6.24,6.24-6.24,6.24,2.8,6.24,6.24-2.8,6.25-6.24,6.25Zm0-10.49c-2.34,0-4.24,1.9-4.24,4.24s1.9,4.25,4.24,4.25,4.24-1.9,4.24-4.25-1.9-4.24-4.24-4.24Z"/>
  <path class="cls-2" d="m355.1,150.43c-3.44,0-6.24-2.8-6.24-6.25s2.8-6.24,6.24-6.24,6.24,2.8,6.24,6.24-2.8,6.25-6.24,6.25Zm0-10.49c-2.34,0-4.24,1.9-4.24,4.24s1.9,4.25,4.24,4.25,4.24-1.9,4.24-4.25-1.9-4.24-4.24-4.24Z"/>
  <path class="cls-2" d="m583.9,136.51c-3.44,0-6.24-2.8-6.24-6.25s2.8-6.24,6.24-6.24,6.24,2.8,6.24,6.24-2.8,6.25-6.24,6.25Zm0-10.49c-2.34,0-4.24,1.9-4.24,4.24s1.9,4.25,4.24,4.25,4.24-1.9,4.24-4.25-1.9-4.24-4.24-4.24Z"/>
  <path class="cls-2" d="m966.24,64.61c-3.44,0-6.24-2.8-6.24-6.25s2.8-6.24,6.24-6.24,6.24,2.8,6.24,6.24-2.8,6.25-6.24,6.25Zm0-10.49c-2.34,0-4.24,1.9-4.24,4.24s1.9,4.25,4.24,4.25,4.24-1.9,4.24-4.25-1.9-4.24-4.24-4.24Z"/>
  <path class="cls-2" d="m1183.48,38.18c-3.44,0-6.24-2.8-6.24-6.25s2.8-6.24,6.24-6.24,6.24,2.8,6.24,6.24-2.8,6.25-6.24,6.25Zm0-10.49c-2.34,0-4.24,1.9-4.24,4.24s1.9,4.25,4.24,4.25,4.24-1.9,4.24-4.25-1.9-4.24-4.24-4.24Z"/>
  <path class="cls-2" d="m1352.52,81.8c-3.44,0-6.24-2.8-6.24-6.25s2.8-6.24,6.24-6.24,6.24,2.8,6.24,6.24-2.8,6.25-6.24,6.25Zm0-10.49c-2.34,0-4.24,1.9-4.24,4.24s1.9,4.25,4.24,4.25,4.24-1.9,4.24-4.25-1.9-4.24-4.24-4.24Z"/>
  <path class="cls-2" d="m1763.3,124.27c-3.44,0-6.24-2.8-6.24-6.25s2.8-6.24,6.24-6.24,6.24,2.8,6.24,6.24-2.8,6.25-6.24,6.25Zm0-10.49c-2.34,0-4.24,1.9-4.24,4.24s1.9,4.25,4.24,4.25,4.24-1.9,4.24-4.25-1.9-4.24-4.24-4.24Z"/>
  <path class="cls-2" d="m1520.27,162.09c-3.44,0-6.24-2.8-6.24-6.25s2.8-6.24,6.24-6.24,6.24,2.8,6.24,6.24-2.8,6.25-6.24,6.25Zm0-10.49c-2.34,0-4.24,1.9-4.24,4.24s1.9,4.25,4.24,4.25,4.24-1.9,4.24-4.25-1.9-4.24-4.24-4.24Z"/>
  <path class="cls-2" d="m313.16,71.28l-3.87,1.39-1.39,3.87c-.07.2-.35.2-.42,0l-1.39-3.87-3.87-1.39c-.2-.07-.2-.35,0-.42l3.87-1.39,1.39-3.87c.07-.2.35-.2.42,0l1.39,3.87,3.87,1.39c.2.07.2.35,0,.42Z"/>
  <path class="cls-2" d="m216.32,148.64l-3.87,1.39-1.39,3.87c-.07.2-.35.2-.42,0l-1.39-3.87-3.87-1.39c-.2-.07-.2-.35,0-.42l3.87-1.39,1.39-3.87c.07-.2.35-.2.42,0l1.39,3.87,3.87,1.39c.2.07.2.35,0,.42Z"/>
  <path class="cls-2" d="m858.8,99.5l-3.87,1.39-1.39,3.87c-.07.2-.35.2-.42,0l-1.39-3.87-3.87-1.39c-.2-.07-.2-.35,0-.42l3.87-1.39,1.39-3.87c.07-.2.35-.2.42,0l1.39,3.87,3.87,1.39c.2.07.2.35,0,.42Z"/>
  <path class="cls-2" d="m1057.01,20.29l-3.87,1.39-1.39,3.87c-.07.2-.35.2-.42,0l-1.39-3.87-3.87-1.39c-.2-.07-.2-.35,0-.42l3.87-1.39,1.39-3.87c.07-.2.35-.2.42,0l1.39,3.87,3.87,1.39c.2.07.2.35,0,.42Z"/>
  <path class="cls-2" d="m1289.15,90.7l-3.87,1.39-1.39,3.87c-.07.2-.35.2-.42,0l-1.39-3.87-3.87-1.39c-.2-.07-.2-.35,0-.42l3.87-1.39,1.39-3.87c.07-.2.35-.2.42,0l1.39,3.87,3.87,1.39c.2.07.2.35,0,.42Z"/>
  <path class="cls-2" d="m1718.81,176.92l-3.87,1.39-1.39,3.87c-.07.2-.35.2-.42,0l-1.39-3.87-3.87-1.39c-.2-.07-.2-.35,0-.42l3.87-1.39,1.39-3.87c.07-.2.35-.2.42,0l1.39,3.87,3.87,1.39c.2.07.2.35,0,.42Z"/>
  <path class="cls-2" d="m1566.71,116.39l-3.87,1.39-1.39,3.87c-.07.2-.35.2-.42,0l-1.39-3.87-3.87-1.39c-.2-.07-.2-.35,0-.42l3.87-1.39,1.39-3.87c.07-.2.35-.2.42,0l1.39,3.87,3.87,1.39c.2.07.2.35,0,.42Z"/>
  <g>
    <path class="cls-2" d="m1923.95,249.18c-1.3.13-2.6.27-3.89.39v109.82H.05v-156.96l63.05,2.5,2.57.8,125.08,29.22h54.39l62.61,7.92,268.14-16.1,7.11-.71,103.46-10.33,67.78,3.42,5.29.27,188.42,9.51,260.64-21.8,226.76,13.87,75.52-7.03h.03l5.04.43,404.11,34.44.67.06,3.22.28Z"/>
    <path class="cls-3" d="m1923.95,249.18c-1.3.13-2.6.27-3.89.39-55.23,5.55-102.22,5.39-139.6,3.38-32.33-1.73-66.78-5.34-100.46-9.81-32.75-4.36-64.76-9.53-93.35-14.6-30.07-5.33-56.36-10.54-75.74-14.57h-.03c-19.95-4.15-32.58-7.02-34.48-7.46-28.12-6.48-70.48-16.94-130.88-23.83-56.91-6.49-101.61-6.59-138.47-6.56-20.75.02-82.47.49-167.49,9.32-59.3,6.16-85.88,11.82-132.95,18.65-54.81,7.96-101.88,12.37-147.07,15.33-33.52,2.2-66,3.59-99.83,5.05-29.73,1.27-57.2,2.01-83.81,2.3-71.28.79-115.17,9.41-201.26,6.22-78.04-2.89-97.76,20.66-210.3,12.09-21.32-1.62-141.87,6-164.28,4.1v-60.4c22.53-10.69,235.12,16.85,307.24,17.56,39.5.38,97.87-.8,486.39-47.4,138.51-16.61,142.84-17.87,177.93-20.2,194.89-12.95,342.5,7.2,373.73,11.65,125.56,17.93,113.98,31.25,235.42,45.07,147.73,16.81,246.49,6.38,279.71,2.33,21.04-2.56,40.94-5.63,59.58-9.01v60.06l.67.06,3.22.28Z"/>
    <path class="cls-1" d="m247.39,272.53c-40.79,3.52-215.81,27-247.33,21.87v-45.43c21.51,1.83,140.8-8.33,161.35-9.41,113.96-6.04,176.91-18.75,255.54-15.84,88.95,3.3,91.97,3.38,166.06,2.34,24.39-.33,49.6-1.04,76.7-2.21,32.05-1.37,62.89-2.7,94.54-4.7,46.81-2.96,95.41-7.4,152.36-15.67,47.07-6.84,73.65-12.49,132.95-18.65,85.02-8.83,146.74-9.3,167.49-9.32,36.86-.03,81.56.07,138.47,6.56,60.4,6.89,102.76,17.35,130.88,23.83,2.06.47,16.68,3.8,39.55,8.5,21.37,4.39,49.95,9.98,82.22,15.55,20.51,3.54,42.5,7.07,65.08,10.27.04,0,.08.01.12.02,38.85,5.52,79.42,10.08,117.09,12.1,37.38,2,84.36,2.18,139.6-3.37.22-.02.44-.04.67-.07l3.22.28c-1.3.13-2.6.27-3.89.39v44.83c-84.22-14.59-204.37-35.05-335.14-56.04-32.52-5.22-75.67-12.04-133.9-16.32-5.35-.39-10.49-.74-15.66-1.04-32.88-1.93-66.91-2.12-162.53-1.29-123.3,1.07-184.95,1.6-229.47,3.63-35.45,1.62-67.71,3.61-95.4,5.59-35.05,2.51-62.78,5.01-80.37,6.67-122.63,11.6-151.13,20.75-253.64,26.33-17.69.96-65.01,3.31-126.65,3.1"/>
  </g>
</svg>