<?xml version="1.0" encoding="utf-8"?>
<!-- Generator: Adobe Illustrator 28.0.0, SVG Export Plug-In . SVG Version: 6.00 Build 0)  -->
<svg version="1.1" id="_Слой_1" xmlns="http://www.w3.org/2000/svg" xmlns:xlink="http://www.w3.org/1999/xlink" x="0px"
	 y="0px" viewBox="0 0 56.2 66" style="enable-background:new 0 0 56.2 66;" xml:space="preserve">
<style type="text/css">
	.st0{fill:#013F4E;}
	.st1{fill:#21C588;}
</style>
<path class="st0" d="M50.8,61.1c-0.9,0.7-2,1-3.1,1c-1.8,0-3.5-0.8-4.6-2.4L31.4,42.4c-1.9,0.8-4,1.2-6.1,1.4c-0.1,0-0.2,0-0.4,0
	c-2.9,0-5.3-2.2-5.5-5.1c-0.2-3,2.1-5.7,5.1-5.8c4.7-0.3,8.4-4.2,8.4-8.9c0-4.9-4-9-9-9s-8.9,3.9-8.9,8.8c-0.1,3-2.5,5.4-5.6,5.4
	c-3-0.1-5.4-2.6-5.4-5.6C4.3,12.7,13.3,3.9,24,3.9s20,8.9,20,20c0,4.4-1.4,8.4-3.8,11.8l12.1,17.8C54,56,53.3,59.4,50.8,61.1z"/>
<path class="st1" d="M9.3,62.4c-2.5,0-4.5-2-4.5-4.5V40.3c0-2.5,2-4.5,4.5-4.5s4.5,2,4.5,4.5v17.6C13.8,60.4,11.8,62.4,9.3,62.4z"/>
</svg>
