<?xml version="1.0" encoding="UTF-8"?>
<svg id="_Слой_1" data-name="Слой 1" xmlns="http://www.w3.org/2000/svg" viewBox="0 0 181.04 50.76">
  <defs>
    <style>
      .cls-1 {
        fill: #fff;
      }

      .cls-1, .cls-2 {
        stroke-width: 0px;
      }

      .cls-2 {
        fill: #21c588;
      }
    </style>
  </defs>
  <path class="cls-1" d="m38.74,45.44c-.66.46-1.42.67-2.17.67-1.24,0-2.46-.59-3.21-1.7l-8.23-12.12c-1.34.54-2.78.88-4.29.98-.08,0-.18,0-.26,0-2.02,0-3.72-1.57-3.86-3.62-.13-2.13,1.48-3.98,3.61-4.12,3.31-.21,5.89-2.98,5.89-6.29,0-3.48-2.83-6.31-6.31-6.31s-6.23,2.77-6.3,6.16c-.04,2.14-1.79,3.82-3.95,3.79-2.14-.04-3.84-1.81-3.79-3.95.15-7.59,6.45-13.75,14.04-13.75s14.05,6.3,14.05,14.05c0,3.08-1,5.94-2.71,8.27l8.51,12.55c1.2,1.77.74,4.18-1.03,5.38Z"/>
  <path class="cls-2" d="m9.52,46.36c-1.75,0-3.17-1.42-3.17-3.17v-12.4c0-1.75,1.42-3.17,3.17-3.17s3.17,1.42,3.17,3.17v12.4c0,1.75-1.42,3.17-3.17,3.17Z"/>
  <g>
    <path class="cls-1" d="m45.24,29.83c0-1.1.13-2.01.39-2.71.26-.71.63-1.26,1.12-1.66.48-.4,1.05-.67,1.71-.82.66-.15,1.4-.22,2.21-.22h3.08c1.17,0,2.17.07,3.01.22s1.53.41,2.06.78c.53.38.92.89,1.17,1.55.25.66.38,1.49.38,2.51v1.98h-10.72v.71c0,.63.22,1.05.67,1.27.44.21,1.13.32,2.05.32h1.36c.6,0,1.07-.04,1.4-.11.34-.08.59-.18.75-.3.16-.12.26-.26.3-.43s.06-.33.06-.49h4.14v.51c0,.74-.15,1.34-.46,1.81-.31.47-.72.83-1.25,1.09-.53.26-1.15.44-1.85.54-.71.1-1.46.15-2.25.15h-3.31c-.74,0-1.46-.05-2.17-.16s-1.35-.35-1.92-.74c-.57-.38-1.03-.94-1.38-1.68-.35-.74-.53-1.73-.53-2.99v-1.13Zm10.86-.99c0-.35-.05-.64-.14-.85-.09-.21-.26-.38-.51-.51-.25-.12-.58-.2-.99-.24-.41-.04-.94-.06-1.59-.06-.72,0-1.29.02-1.71.06-.42.04-.74.12-.97.24-.22.12-.37.29-.44.51-.07.21-.1.5-.1.85h6.44Z"/>
    <path class="cls-1" d="m62.3,29.83c0-1.1.13-2.01.39-2.71.26-.71.63-1.26,1.12-1.66.48-.4,1.05-.67,1.71-.82.66-.15,1.4-.22,2.21-.22h4.97c1.64,0,2.93.31,3.86.93.94.62,1.4,1.61,1.4,2.96v1.06h-4.28c0-.6-.18-1.02-.55-1.26-.37-.25-1.03-.37-2-.37h-1.7c-.92,0-1.6.14-2.05.41s-.67.74-.67,1.38v1.56c0,.77.22,1.29.66,1.56.44.28,1,.41,1.69.41h2.25c.31,0,.6-.02.89-.06.28-.04.54-.11.76-.22.22-.11.4-.25.53-.41.13-.17.2-.39.2-.67v-.28h4.28v1.04c0,.78-.15,1.43-.45,1.95-.3.52-.69.94-1.17,1.25-.48.31-1.03.53-1.66.66s-1.25.18-1.87.18h-4.51c-.74,0-1.46-.05-2.17-.16s-1.35-.35-1.92-.74c-.57-.38-1.03-.94-1.38-1.68-.35-.74-.53-1.73-.53-2.99v-1.13Z"/>
    <path class="cls-1" d="m80.45,24.61h4.14v2.23h.05c.12-.46.32-.85.6-1.16.28-.31.61-.56.99-.75.38-.18.81-.31,1.27-.39s.94-.12,1.45-.12c1.61,0,2.76.36,3.45,1.09.69.73,1.04,1.91,1.04,3.53,0,.15,0,.31-.01.47,0,.16-.02.35-.03.56h-3.82c0-.37-.03-.69-.08-.97-.05-.28-.16-.51-.31-.69s-.37-.32-.64-.41c-.28-.09-.64-.14-1.08-.14-.77,0-1.39.15-1.86.46-.48.31-.71.81-.71,1.52v6.49h-4.42v-11.73Z"/>
    <path class="cls-1" d="m111.5,36.34h-4.42v-1.89h-.05c-.4.81-.99,1.36-1.76,1.64-.77.28-1.75.43-2.93.43-.46,0-.94-.01-1.44-.03-.5-.02-.99-.08-1.47-.18s-.95-.26-1.39-.47c-.44-.21-.83-.51-1.16-.9s-.59-.87-.79-1.45c-.2-.58-.3-1.3-.3-2.14v-6.74h4.42v6.74c0,1.15.95,1.73,2.85,1.73h1.01c.95,0,1.69-.21,2.22-.64.53-.43.79-1.07.79-1.91v-5.91h4.42v11.73Z"/>
    <path class="cls-1" d="m119.2,23.13h-4.42v-3.45h4.42v3.45Zm0,13.2h-4.42v-11.73h4.42v11.73Z"/>
    <path class="cls-1" d="m123.55,27.78h-2.21v-3.17h2.21v-2.76h4.42v2.76h6.85v3.17h-6.85v4.51c0,.44.15.73.45.86.3.13.72.2,1.25.2.72,0,1.2-.1,1.45-.3.25-.2.37-.57.37-1.1v-.78h3.86v1.43c0,.55-.1,1.07-.29,1.55-.19.48-.49.9-.89,1.25-.4.35-.92.63-1.55.83-.64.2-1.39.3-2.27.3h-1.75c-.68,0-1.32-.06-1.93-.18-.61-.12-1.15-.34-1.61-.64-.46-.31-.83-.72-1.1-1.25-.28-.53-.41-1.2-.41-2.01v-4.65Z"/>
    <path class="cls-1" d="m142.5,23.13h-4.42v-3.45h4.42v3.45Zm0,13.2h-4.42v-11.73h4.42v11.73Z"/>
    <path class="cls-1" d="m146.67,27.64h-2.02v-3.04h2.02v-.9c0-.8.11-1.47.32-2.01.21-.54.54-.98.99-1.3.44-.32,1-.55,1.68-.69.67-.14,1.48-.21,2.42-.21.6,0,1.13.02,1.61.05.48.03.94.05,1.38.07v2.99c-.31-.02-.62-.03-.93-.05-.31-.02-.6-.02-.86-.02-.45,0-.81.02-1.09.07s-.51.13-.67.24c-.16.11-.27.27-.33.47-.06.2-.09.44-.09.74v.55h4.19v3.04h-4.19v8.69h-4.42v-8.69Z"/>
    <path class="cls-1" d="m159.41,37.53h.37c.87,0,1.57-.11,2.09-.34.52-.23.78-.68.78-1.36h-1.56l-5.38-11.22h4.78l3.38,8.17,3.38-8.17h4.78l-6.58,13.89c-.35.72-.87,1.22-1.55,1.51-.68.28-1.58.43-2.7.43-.41,0-.76-.01-1.05-.03-.28-.02-.53-.04-.75-.06v-2.81Z"/>
  </g>
</svg>