<?xml version="1.0" encoding="utf-8"?>
<!-- Generator: Adobe Illustrator 28.0.0, SVG Export Plug-In . SVG Version: 6.00 Build 0)  -->
<svg version="1.1" id="Слой_1" xmlns="http://www.w3.org/2000/svg" xmlns:xlink="http://www.w3.org/1999/xlink" x="0px" y="0px"
	 viewBox="0 0 512 512" style="enable-background:new 0 0 512 512;" xml:space="preserve">
<style type="text/css">
	.st0{fill:#013F4E;}
</style>
<path class="st0" d="M425.6,67.9l18.6,18.6c19.8,19.8,19.8,52,0,71.9l-44.8,44.8l-90.5-90.4l44.8-44.8C373.5,48,405.6,48,425.6,67.9
	L425.6,67.9z M88.6,333l202.3-202.4l90.5,90.5L179.1,423.4c-5.3,5.3-12,9.2-19.2,11.3l-82.6,23.6c-6.7,1.9-13.8,0.1-18.7-4.8
	c-4.9-4.9-6.7-12.1-4.8-18.7l23.6-82.6C79.3,344.8,83.2,338.2,88.6,333L88.6,333z M251,134.7L135.1,250.6l-69.4-69.5
	c-14.8-14.8-14.8-39,0-53.9l62-61.9c14.8-14.8,39-14.8,53.9,0L197.3,81c-0.2,0.2-0.6,0.5-0.8,0.7l-50.8,50.8c-4.9,4.9-4.9,13,0,17.9
	c4.9,4.9,13,4.9,17.9,0l50.8-50.8c0.2-0.2,0.5-0.6,0.7-0.8C215.2,98.8,251,134.7,251,134.7z M377.4,261l35.8,35.8
	c-0.2,0.2-0.6,0.5-0.8,0.7l-50.8,50.8c-4.9,4.9-4.9,13,0,17.9c4.9,4.9,13,4.9,17.9,0l50.8-50.8c0.2-0.2,0.5-0.6,0.7-0.8l15.7,15.8
	c14.8,14.8,14.8,39,0,53.9l-62,61.9c-14.8,14.8-39,14.8-53.9,0L261.5,377L377.4,261z"/>
</svg>
