<?xml version="1.0" encoding="utf-8"?>
<!-- Generator: Adobe Illustrator 28.0.0, SVG Export Plug-In . SVG Version: 6.00 Build 0)  -->
<svg version="1.1" id="Слой_1" xmlns="http://www.w3.org/2000/svg" xmlns:xlink="http://www.w3.org/1999/xlink" x="0px" y="0px"
	 viewBox="0 0 15.9 15.9" style="enable-background:new 0 0 15.9 15.9;" xml:space="preserve">
<style type="text/css">
	.st0{fill:#013F4E;}
</style>
<path class="st0" d="M5.5,4.6c0-1.3,1.1-2.4,2.4-2.4c1,0,1.8,0.6,2.2,1.4C10.3,4,10.9,4.2,11.3,4c0.5-0.2,0.7-0.8,0.5-1.3
	c-0.7-1.5-2.2-2.5-3.9-2.5c-2.4,0-4.3,1.9-4.3,4.3V6H3.1c-1,0-1.9,0.9-1.9,1.9v5.7c0,1.1,0.9,1.9,1.9,1.9h9.6c1.1,0,1.9-0.9,1.9-1.9
	V7.9c0-1.1-0.9-1.9-1.9-1.9H5.5V4.6z"/>
</svg>
