<?xml version="1.0" encoding="utf-8"?>
<!-- Generator: Adobe Illustrator 28.0.0, SVG Export Plug-In . SVG Version: 6.00 Build 0)  -->
<svg version="1.1" id="Слой_1" xmlns="http://www.w3.org/2000/svg" xmlns:xlink="http://www.w3.org/1999/xlink" x="0px" y="0px"
	 viewBox="0 0 512 512" style="enable-background:new 0 0 512 512;" xml:space="preserve">
<style type="text/css">
	.st0{fill:#013F4E;}
</style>
<path class="st0" d="M11,182.3c0-30,24.4-54.4,54.4-54.4h217.8c30,0,54.4,24.4,54.4,54.4v217.8c0,30-24.4,54.4-54.4,54.4H65.4
	c-30,0-54.4-24.4-54.4-54.4V182.3z M486.6,158.3c8.8,4.8,14.4,14,14.4,24v217.8c0,10-5.5,19.2-14.4,24s-19.6,4.3-28-1.4L377,368.3
	l-12.1-8.1v-14.5V236.8v-14.5l12.1-8.1l81.7-54.4C467,154.2,477.7,153.6,486.6,158.3L486.6,158.3z"/>
</svg>
