<?xml version="1.0" encoding="utf-8"?>
<!-- Generator: Adobe Illustrator 28.0.0, SVG Export Plug-In . SVG Version: 6.00 Build 0)  -->
<svg version="1.1" id="Слой_1" xmlns="http://www.w3.org/2000/svg" xmlns:xlink="http://www.w3.org/1999/xlink" x="0px" y="0px"
	 viewBox="0 0 512 512" style="enable-background:new 0 0 512 512;" xml:space="preserve">
<style type="text/css">
	.st0{fill:#FF1300;}
</style>
<path class="st0" d="M15,69.5C15,35.2,42.9,7.3,77.2,7.3h155.5v124.4c0,17.2,13.9,31.1,31.1,31.1h124.4v139.9H186
	c-34.3,0-62.2,27.9-62.2,62.2v139.9H77.2c-34.3,0-62.2-27.9-62.2-62.2V69.5z M388.1,131.6H263.8V7.3L388.1,131.6z M186,349.3h31.1
	c30,0,54.4,24.4,54.4,54.4s-24.4,54.4-54.4,54.4h-15.5v31.1c0,8.5-7,15.5-15.5,15.5c-8.5,0-15.5-7-15.5-15.5v-46.6v-77.7
	C170.5,356.3,177.5,349.3,186,349.3z M217.1,427c12.9,0,23.3-10.4,23.3-23.3s-10.4-23.3-23.3-23.3h-15.5V427H217.1z M310.4,349.3
	h31.1c25.7,0,46.6,20.9,46.6,46.6v62.2c0,25.7-20.9,46.6-46.6,46.6h-31.1c-8.5,0-15.5-7-15.5-15.5V364.8
	C294.9,356.3,301.9,349.3,310.4,349.3z M341.5,473.6c8.5,0,15.5-7,15.5-15.5v-62.2c0-8.5-7-15.5-15.5-15.5H326v93.3H341.5z
	 M419.2,364.8c0-8.5,7-15.5,15.5-15.5h46.6c8.5,0,15.5,7,15.5,15.5s-7,15.5-15.5,15.5h-31.1v31.1h31.1c8.5,0,15.5,7,15.5,15.5
	c0,8.5-7,15.5-15.5,15.5h-31.1v46.6c0,8.5-7,15.5-15.5,15.5c-8.5,0-15.5-7-15.5-15.5V427V364.8z"/>
</svg>
