<?xml version="1.0" encoding="utf-8"?>
<!-- Generator: Adobe Illustrator 28.0.0, SVG Export Plug-In . SVG Version: 6.00 Build 0)  -->
<svg version="1.1" id="Слой_1" xmlns="http://www.w3.org/2000/svg" xmlns:xlink="http://www.w3.org/1999/xlink" x="0px" y="0px"
	 viewBox="0 0 512 512" style="enable-background:new 0 0 512 512;" xml:space="preserve">
<style type="text/css">
	.st0{fill:#013F4E;}
</style>
<path class="st0" d="M170.9,57.5c0-15.7,12.7-28.4,28.4-28.4h113.4c15.7,0,28.4,12.7,28.4,28.4v28.4h42.5
	c23.5,0,42.5,19.1,42.5,42.5v113.4l39.3,13.1c20.5,6.8,26.1,33.2,10.2,47.8l-89.5,82.1c-14.4,8.3-30.7,13.4-45.1,13.4
	c-17.4,0-36.2-6.8-52.5-18c-19.6-13.7-45.7-13.7-65.3,0c-15.2,10.5-33.7,18-52.5,18c-14.4,0-30.7-5.1-45.1-13.4l-89.5-82.1
	c-16-14.6-10.3-40.9,10.2-47.8l39.4-13.1V128.4c0-23.5,19.1-42.5,42.5-42.5h42.5V57.5z M142.6,222.9l95.5-31.8
	c11.6-3.9,24.2-3.9,35.9,0l95.4,31.8v-80.4H142.6V222.9z M272.4,403c19.9,13.7,44.3,23.1,68.7,23.1c23.8,0,49.1-9.6,68.6-23.1l0,0
	c10.5-7.5,24.9-6.9,34.7,1.5c12.8,10.5,28.8,18.6,44.8,22.3c15.2,3.5,24.7,18.8,21.2,34c-3.5,15.2-18.8,24.7-34,21.2
	c-21.7-5.1-39.8-14.6-51.6-22.2c-25.7,13.8-54.5,23-83.7,23c-28.3,0-53.7-8.8-71.2-16.7c-5.1-2.4-9.8-4.7-13.8-6.8
	c-4,2.1-8.6,4.5-13.8,6.8c-17.5,8-43,16.7-71.2,16.7c-29.2,0-58-9.1-83.7-22.9c-11.9,7.4-29.9,17.1-51.6,22.2
	c-15.2,3.5-30.5-5.9-34-21.2s5.9-30.5,21.2-34c16-3.7,32.1-11.8,44.8-22.3c9.8-8.3,24.2-9,34.7-1.5l0,0c19.6,13.5,44.8,23,68.6,23
	c24.4,0,48.7-9.4,68.7-23.1C249.4,396,262.6,396,272.4,403z"/>
</svg>
