<?xml version="1.0" encoding="utf-8"?>
<!-- Generator: Adobe Illustrator 28.0.0, SVG Export Plug-In . SVG Version: 6.00 Build 0)  -->
<svg version="1.1" id="Слой_1" xmlns="http://www.w3.org/2000/svg" xmlns:xlink="http://www.w3.org/1999/xlink" x="0px" y="0px"
	 viewBox="0 0 14 16" style="enable-background:new 0 0 14 16;" xml:space="preserve">
<style type="text/css">
	.st0{fill:#013F4E;}
</style>
<path class="st0" d="M3,2.4C2.1,2.4,1.4,3.1,1.4,4v8c0,0.9,0.7,1.6,1.6,1.6h8c0.9,0,1.6-0.7,1.6-1.6V5.9c0-0.4-0.2-0.8-0.5-1.1
	l-1.9-1.9C9.9,2.5,9.5,2.4,9.1,2.4H3z M3,4.8C3,4.3,3.3,4,3.8,4h4.8C9,4,9.4,4.3,9.4,4.8v1.6c0,0.4-0.4,0.8-0.8,0.8H3.8
	C3.3,7.2,3,6.8,3,6.4V4.8z M7,8.8c0.9,0,1.6,0.7,1.6,1.6S7.9,12,7,12s-1.6-0.7-1.6-1.6S6.1,8.8,7,8.8z"/>
</svg>
