<?xml version="1.0" encoding="utf-8"?>
<!-- Generator: Adobe Illustrator 28.0.0, SVG Export Plug-In . SVG Version: 6.00 Build 0)  -->
<svg version="1.1" id="Слой_1" xmlns="http://www.w3.org/2000/svg" xmlns:xlink="http://www.w3.org/1999/xlink" x="0px" y="0px"
	 viewBox="0 0 16 16" style="enable-background:new 0 0 16 16;" xml:space="preserve">
<style type="text/css">
	.st0{fill:#757575;}
	.st1{fill:none;}
	.st2{font-family:'Arial-BoldMT';}
	.st3{font-size:1.6px;}
</style>
<g>
	<g>
		<g>
			<path class="st0" d="M14.8,2.5H1.2C1,2.5,0.8,2.2,0.8,2c0-0.2,0.2-0.5,0.5-0.5h13.6c0.2,0,0.5,0.2,0.5,0.5
				C15.2,2.2,15,2.5,14.8,2.5z"/>
		</g>
		<g>
			<path class="st0" d="M12.4,5.6H1.2C1,5.6,0.8,5.4,0.8,5.2c0-0.2,0.2-0.5,0.5-0.5h11.2c0.2,0,0.5,0.2,0.5,0.5
				C12.9,5.4,12.7,5.6,12.4,5.6z"/>
		</g>
		<g>
			<path class="st0" d="M9.2,8.8H1.2C1,8.8,0.8,8.6,0.8,8.3S1,7.9,1.2,7.9h7.9c0.2,0,0.5,0.2,0.5,0.5C9.6,8.6,9.4,8.8,9.2,8.8z"/>
		</g>
		<g>
			<path class="st0" d="M9.2,11.9H1.2c-0.2,0-0.5-0.2-0.5-0.5C0.8,11.2,1,11,1.2,11h7.9c0.2,0,0.5,0.2,0.5,0.5S9.4,11.9,9.2,11.9z"
				/>
		</g>
		<g>
			<path class="st0" d="M10.9,12.1c-0.1,0-0.1,0-0.2-0.1c-0.1-0.1-0.1-0.4,0-0.5l3.9-3.9c0.1-0.1,0.4-0.1,0.5,0
				c0.1,0.1,0.1,0.4,0,0.5l-3.9,3.9C11,11.9,11,12.1,10.9,12.1z"/>
		</g>
		<g>
			<path class="st0" d="M14.8,12.1c-0.1,0-0.1,0-0.2-0.1l-3.9-3.9c-0.1-0.1-0.1-0.4,0-0.5c0.1-0.1,0.4-0.1,0.5,0l3.9,3.9
				c0.1,0.1,0.1,0.4,0,0.5C14.9,11.9,14.9,12.1,14.8,12.1z"/>
		</g>
	</g>
</g>
<rect x="-1.6" y="13.1" class="st1" width="19.3" height="2.9"/>
<text transform="matrix(1 0 0 1 0.6665 14.2537)" class="st0 st2 st3">NO PARTICIPANTS</text>
</svg>
