<?xml version="1.0" encoding="utf-8"?>
<!-- Generator: Adobe Illustrator 28.0.0, SVG Export Plug-In . SVG Version: 6.00 Build 0)  -->
<svg version="1.1" id="Слой_1" xmlns="http://www.w3.org/2000/svg" xmlns:xlink="http://www.w3.org/1999/xlink" x="0px" y="0px"
	 viewBox="0 0 512 512" style="enable-background:new 0 0 512 512;" xml:space="preserve">
<style type="text/css">
	.st0{fill:#013F4E;}
</style>
<path class="st0" d="M148.6,91.7h113.7c3.5,0,6.3,2.8,6.3,6.3v31.6H142.3V98C142.3,94.6,145.1,91.7,148.6,91.7z M104.3,98v31.6H53.8
	c-27.9,0-50.5,22.7-50.5,50.6V256h151.6h126.4h6.5c25.5-30.9,64.1-50.6,107.3-50.6c4.3,0,8.5,0.2,12.6,0.6v-25.8
	c0-27.9-22.7-50.6-50.5-50.6h-50.6V98c0-24.4-19.8-44.2-44.2-44.2H148.6C124.2,53.8,104.3,73.6,104.3,98z M256,331.8h-75.8
	c-14,0-25.3-11.3-25.3-25.3v-25.3H3.2v101.1c0,27.9,22.7,50.5,50.5,50.5h234c-19.8-24-31.8-54.9-31.8-88.5c0-4.3,0.2-8.5,0.6-12.6
	H256z M508.8,344.5c0-62.8-50.9-113.7-113.7-113.7s-113.7,50.9-113.7,113.7l0,0c0,62.8,50.9,113.7,113.7,113.7
	S508.8,407.3,508.8,344.5z M395,281.3c7,0,12.6,5.7,12.6,12.6v37.9h25.3c7,0,12.6,5.7,12.6,12.6s-5.7,12.6-12.6,12.6H395
	c-7,0-12.6-5.7-12.6-12.6v-50.5C382.4,287,388.1,281.3,395,281.3z"/>
</svg>
