<?xml version="1.0" encoding="utf-8"?>
<!-- Generator: Adobe Illustrator 28.0.0, SVG Export Plug-In . SVG Version: 6.00 Build 0)  -->
<svg version="1.1" id="Слой_1" xmlns="http://www.w3.org/2000/svg" xmlns:xlink="http://www.w3.org/1999/xlink" x="0px" y="0px"
	 viewBox="0 0 15.9 15.9" style="enable-background:new 0 0 15.9 15.9;" xml:space="preserve">
<style type="text/css">
	.st0{fill:#013F4E;}
</style>
<path class="st0" d="M7.9,0.1c0.5,0,1,0.4,1,1v1h1c0.4,0,0.8,0.2,0.9,0.6s0.1,0.8-0.2,1.1l-2,2c-0.4,0.4-1,0.4-1.4,0l-2-2
	C5,3.5,4.9,3.1,5.1,2.7S5.6,2.1,6,2.1h1v-1C7,0.6,7.4,0.1,7.9,0.1L7.9,0.1z M5.3,12.1l2-2c0.4-0.4,1-0.4,1.4,0l2,2
	c0.3,0.3,0.4,0.7,0.2,1.1s-0.5,0.6-0.9,0.6h-1v1c0,0.5-0.4,1-1,1s-1-0.4-1-1v-1H6c-0.4,0-0.8-0.2-0.9-0.6S5,12.4,5.3,12.1L5.3,12.1z
	 M1.1,7h1V6c0-0.4,0.2-0.8,0.6-0.9C3.1,4.9,3.5,5,3.8,5.3l2,2c0.4,0.4,0.4,1,0,1.4l-2,2c-0.3,0.3-0.7,0.4-1.1,0.2s-0.6-0.5-0.6-0.9
	v-1h-1c-0.5,0-1-0.4-1-1S0.6,7,1.1,7L1.1,7z M10.2,8.6c-0.4-0.4-0.4-1,0-1.4l2-2c0.3-0.3,0.7-0.4,1.1-0.2c0.4,0.2,0.6,0.5,0.6,0.9v1
	h1c0.5,0,1,0.4,1,1s-0.4,1-1,1h-1v1c0,0.4-0.2,0.8-0.6,0.9s-0.8,0.1-1.1-0.2L10.2,8.6L10.2,8.6z M7.9,7c0.5,0,1,0.4,1,1s-0.4,1-1,1
	s-1-0.4-1-1S7.4,7,7.9,7z"/>
</svg>
