<?xml version="1.0" encoding="utf-8"?>
<!-- Generator: Adobe Illustrator 28.0.0, SVG Export Plug-In . SVG Version: 6.00 Build 0)  -->
<svg version="1.1" id="Слой_1" xmlns="http://www.w3.org/2000/svg" xmlns:xlink="http://www.w3.org/1999/xlink" x="0px" y="0px"
	 viewBox="0 0 512 512" style="enable-background:new 0 0 512 512;" xml:space="preserve">
<style type="text/css">
	.st0{fill:#FFFFFF;}
	.st1{fill:#013F4E;}
</style>
<g>
	<path class="st0" d="M341.4,341.2c0.4,9.9-7.6,18.1-17.4,18.1h-33.8c-9.1,0-16.5,7.4-16.5,16.5v33.8c0,9.8-8.1,17.8-18.1,17.4
		c-9.5-0.3-16.8-8.4-16.8-17.8v-33.4c0-9.1-7.4-16.5-16.5-16.5h-33.8c-9.9,0-17.8-8.2-17.4-18.1c0.3-9.4,8.4-16.8,17.8-16.8h33.4
		c9.1,0,16.5-7.4,16.5-16.5v-33.8c0-9.9,8.2-17.8,18.1-17.4c9.4,0.3,16.8,8.4,16.8,17.8v33.4c0,9.1,7.4,16.5,16.5,16.5h33.4
		C333,324.4,341,331.8,341.4,341.2z"/>
</g>
<path class="st1" d="M114.4,205.9c7.2-20.5,19-39.7,35.5-56.1c58.7-58.7,153.8-58.7,212.4,0l16.1,16.1h-32.2c-16.6,0-30,13.4-30,30
	s13.4,30,30,30h104.7l0,0h0.4c16.6,0,30-13.4,30-30V90.8c0-16.6-13.4-30-30-30s-30,13.4-30,30v33l-16.4-16.5
	c-82.1-82.1-215.3-82.1-297.4,0c-22.9,22.9-39.4,49.8-49.6,78.7c-5.5,15.7,2.7,32.8,18.3,38.3S108.9,221.6,114.4,205.9L114.4,205.9z
	 M52.3,287.3c-4.7,1.4-9.2,3.9-12.9,7.7c-3.8,3.8-6.3,8.3-7.6,13.1c-0.3,1.1-0.6,2.3-0.8,3.6c-0.3,1.6-0.4,3.2-0.4,4.8v104.8
	c0,16.6,13.4,30,30,30s30-13.4,30-30v-33l16.5,16.4l0,0c82.1,82,215.3,82,297.3,0c22.9-22.9,39.5-49.8,49.7-78.7
	c5.5-15.7-2.7-32.8-18.3-38.3s-32.8,2.7-38.3,18.3c-7.2,20.5-19,39.7-35.5,56.1c-58.7,58.7-153.8,58.7-212.4,0l-0.1-0.1l-16.1-16
	h32.3c16.6,0,30-13.4,30-30s-13.4-30-30-30H61.2c-1.5,0-3,0.1-4.5,0.3C55.2,286.5,53.7,286.8,52.3,287.3z"/>
</svg>
