<?xml version="1.0" encoding="utf-8"?>
<!-- Generator: Adobe Illustrator 28.0.0, SVG Export Plug-In . SVG Version: 6.00 Build 0)  -->
<svg version="1.1" id="Слой_1" xmlns="http://www.w3.org/2000/svg" xmlns:xlink="http://www.w3.org/1999/xlink" x="0px" y="0px"
	 viewBox="0 0 15.9 15.9" style="enable-background:new 0 0 15.9 15.9;" xml:space="preserve">
<style type="text/css">
	.st0{fill:#A5A5A5;}
</style>
<path class="st0" d="M5.5,4.6V6h4.8V4.6c0-1.3-1.1-2.4-2.4-2.4S5.5,3.2,5.5,4.6z M3.6,6V4.6c0-2.4,1.9-4.3,4.3-4.3s4.3,1.9,4.3,4.3
	V6h0.5c1.1,0,1.9,0.9,1.9,1.9v5.8c0,1.1-0.9,1.9-1.9,1.9H3.1c-1.1,0-1.9-0.9-1.9-1.9V7.9c0-1,0.9-1.9,1.9-1.9H3.6z"/>
</svg>
