<?xml version="1.0" encoding="utf-8"?>
<!-- Generator: Adobe Illustrator 28.0.0, SVG Export Plug-In . SVG Version: 6.00 Build 0)  -->
<svg version="1.1" id="Слой_1" xmlns="http://www.w3.org/2000/svg" xmlns:xlink="http://www.w3.org/1999/xlink" x="0px" y="0px"
	 viewBox="0 0 640 640" style="enable-background:new 0 0 640 640;" xml:space="preserve">
<style type="text/css">
	.st0{fill:#013F4E;}
</style>
<g>
	<path class="st0" d="M485.8,429.4c15.6,15.6,15.6,40.9,0,56.4c-7.8,7.8-18,11.7-28.2,11.7s-20.4-3.9-28.2-11.7L297.5,353.9
		L165.6,485.8c-7.8,7.8-18,11.7-28.2,11.7s-20.4-3.9-28.2-11.7c-15.6-15.6-15.6-40.9,0-56.4l131.9-131.9L109.2,165.6
		c-15.6-15.6-15.6-40.9,0-56.4c15.6-15.6,40.9-15.6,56.4,0l131.9,131.9l131.9-131.9c15.6-15.6,40.9-15.6,56.4,0
		c15.6,15.6,15.6,40.9,0,56.4L353.9,297.5L485.8,429.4z"/>
</g>
</svg>
