<?xml version="1.0" encoding="utf-8"?>
<!-- Generator: Adobe Illustrator 28.0.0, SVG Export Plug-In . SVG Version: 6.00 Build 0)  -->
<svg version="1.1" id="Слой_1" xmlns="http://www.w3.org/2000/svg" xmlns:xlink="http://www.w3.org/1999/xlink" x="0px" y="0px"
	 viewBox="0 0 15.9 15.9" style="enable-background:new 0 0 15.9 15.9;" xml:space="preserve">
<style type="text/css">
	.st0{fill:#013F4E;}
</style>
<path class="st0" d="M14.5,0.8c-0.7-0.7-1.7-0.7-2.4,0l-0.9,0.9l2.9,2.9l0.9-0.9c0.7-0.7,0.7-1.7,0-2.4L14.5,0.8z M5.5,7.4
	C5.3,7.6,5.2,7.8,5.1,8.1l-0.9,2.7c-0.1,0.3,0,0.5,0.2,0.7s0.5,0.3,0.7,0.2l2.7-0.9c0.2-0.1,0.5-0.2,0.7-0.4l5-5l-2.9-2.9L5.5,7.4z
	 M3.2,2.1C1.6,2.1,0.4,3.4,0.4,5v7.7c0,1.6,1.3,2.9,2.9,2.9h7.7c1.6,0,2.9-1.3,2.9-2.9V9.8c0-0.5-0.4-1-1-1c-0.5,0-1,0.4-1,1v2.9
	c0,0.5-0.4,1-1,1H3.2c-0.5,0-1-0.4-1-1V5c0-0.5,0.4-1,1-1h2.9c0.5,0,1-0.4,1-1s-0.4-1-1-1H3.2z"/>
</svg>
