<?xml version="1.0" encoding="utf-8"?>
<!-- Generator: Adobe Illustrator 28.0.0, SVG Export Plug-In . SVG Version: 6.00 Build 0)  -->
<svg version="1.1" id="Слой_1" xmlns="http://www.w3.org/2000/svg" xmlns:xlink="http://www.w3.org/1999/xlink" x="0px" y="0px"
	 viewBox="0 0 512 512" style="enable-background:new 0 0 512 512;" xml:space="preserve">
<style type="text/css">
	.st0{fill:#013F4E;}
</style>
<g>
	<path class="st0" d="M434,254.6c0.8,20.7-15.9,37.8-36.4,37.8H327c-19,0-34.5,15.5-34.5,34.5v70.6c0,20.5-16.9,37.2-37.8,36.4
		c-19.9-0.6-35.1-17.6-35.1-37.2V327c0-19-15.5-34.5-34.5-34.5h-70.6c-20.7,0-37.2-17.1-36.4-37.8c0.6-19.6,17.6-35.1,37.2-35.1H185
		c19,0,34.5-15.5,34.5-34.5v-70.6c0-20.7,17.1-37.2,37.8-36.4c19.6,0.6,35.1,17.6,35.1,37.2V185c0,19,15.5,34.5,34.5,34.5h69.8
		C416.4,219.5,433.1,235,434,254.6z"/>
</g>
</svg>
