<?xml version="1.0" encoding="utf-8"?>
<!-- Generator: Adobe Illustrator 28.0.0, SVG Export Plug-In . SVG Version: 6.00 Build 0)  -->
<svg version="1.1" id="Слой_1" xmlns="http://www.w3.org/2000/svg" xmlns:xlink="http://www.w3.org/1999/xlink" x="0px" y="0px"
	 viewBox="0 0 512 512" style="enable-background:new 0 0 512 512;" xml:space="preserve">
<style type="text/css">
	.st0{fill:#013F4E;}
</style>
<path class="st0" d="M32,96c0-17.7,14.3-32,32-32h384c17.7,0,32,14.3,32,32s-14.3,32-32,32H64C46.3,128,32,113.7,32,96z M32,256
	c0-17.7,14.3-32,32-32h384c17.7,0,32,14.3,32,32s-14.3,32-32,32H64C46.3,288,32,273.7,32,256z M480,416c0,17.7-14.3,32-32,32H64
	c-17.7,0-32-14.3-32-32s14.3-32,32-32h384C465.7,384,480,398.3,480,416z"/>
</svg>
