<?xml version="1.0" encoding="utf-8"?>
<!-- Generator: Adobe Illustrator 28.0.0, SVG Export Plug-In . SVG Version: 6.00 Build 0)  -->
<svg version="1.1" id="Слой_1" xmlns="http://www.w3.org/2000/svg" xmlns:xlink="http://www.w3.org/1999/xlink" x="0px" y="0px"
	 viewBox="0 0 16 16" style="enable-background:new 0 0 16 16;" xml:space="preserve">
<style type="text/css">
	.st0{fill:#757575;}
</style>
<g>
	<g>
		<g>
			<path class="st0" d="M13.8,2.7H2.2C2,2.7,1.8,2.5,1.8,2.3S2,1.9,2.2,1.9h11.6c0.2,0,0.4,0.2,0.4,0.4S14,2.7,13.8,2.7z"/>
		</g>
		<g>
			<path class="st0" d="M11.8,5.4H2.2C2,5.4,1.8,5.2,1.8,5S2,4.6,2.2,4.6h9.6c0.2,0,0.4,0.2,0.4,0.4S12,5.4,11.8,5.4z"/>
		</g>
		<g>
			<path class="st0" d="M9,8.1H2.2C2,8.1,1.8,7.9,1.8,7.7S2,7.3,2.2,7.3H9c0.2,0,0.4,0.2,0.4,0.4S9.2,8.1,9,8.1z"/>
		</g>
		<g>
			<path class="st0" d="M9,10.8H2.2c-0.2,0-0.4-0.2-0.4-0.4S2,10,2.2,10H9c0.2,0,0.4,0.2,0.4,0.4S9.2,10.8,9,10.8z"/>
		</g>
		<g>
			<path class="st0" d="M10.5,10.9c-0.1,0-0.1,0-0.2-0.1c-0.1-0.1-0.1-0.3,0-0.4l3.3-3.3C13.7,7,13.9,7,14,7.1
				c0.1,0.1,0.1,0.3,0,0.4l-3.3,3.3C10.6,10.8,10.6,10.9,10.5,10.9z"/>
		</g>
		<g>
			<path class="st0" d="M13.8,10.9c-0.1,0-0.1,0-0.2-0.1l-3.3-3.3c-0.1-0.1-0.1-0.3,0-0.4c0.1-0.1,0.3-0.1,0.4,0l3.3,3.3
				c0.1,0.1,0.1,0.3,0,0.4C13.9,10.8,13.9,10.9,13.8,10.9z"/>
		</g>
	</g>
	<g>
		<path class="st0" d="M1.8,14.1v-1.7H2l0.5,0.9c0.1,0.2,0.2,0.4,0.3,0.6l0,0c0-0.2,0-0.4,0-0.7v-0.7h0.2v1.7H2.8l-0.5-0.9
			C2.2,13,2.1,12.8,2,12.6l0,0c0,0.2,0,0.4,0,0.7v0.7H1.8z"/>
		<path class="st0" d="M4.9,13.2c0,0.6-0.4,0.9-0.8,0.9c-0.5,0-0.8-0.4-0.8-0.9c0-0.5,0.3-0.9,0.8-0.9C4.6,12.3,4.9,12.7,4.9,13.2z
			 M3.6,13.2c0,0.4,0.2,0.7,0.5,0.7c0.4,0,0.5-0.3,0.5-0.7c0-0.3-0.2-0.7-0.5-0.7C3.8,12.5,3.6,12.9,3.6,13.2z"/>
		<path class="st0" d="M6,14.1l-0.6-1.7h0.2L6,13.2c0.1,0.2,0.1,0.4,0.2,0.6h0c0-0.2,0.1-0.4,0.2-0.6l0.3-0.8h0.2l-0.6,1.7H6z"/>
		<path class="st0" d="M8,13.3H7.3v0.6H8v0.2h-1v-1.7H8v0.2H7.3v0.5H8V13.3z"/>
		<path class="st0" d="M8.3,13.8c0.1,0.1,0.2,0.1,0.4,0.1c0.2,0,0.4-0.1,0.4-0.3c0-0.2-0.1-0.3-0.3-0.3c-0.3-0.1-0.5-0.2-0.5-0.5
			c0-0.3,0.2-0.5,0.6-0.5c0.2,0,0.3,0,0.4,0.1l-0.1,0.2c-0.1,0-0.2-0.1-0.3-0.1c-0.2,0-0.3,0.1-0.3,0.3c0,0.2,0.1,0.2,0.3,0.3
			c0.3,0.1,0.4,0.3,0.4,0.5c0,0.3-0.2,0.5-0.6,0.5c-0.2,0-0.3,0-0.4-0.1L8.3,13.8z"/>
		<path class="st0" d="M9.5,13.8c0.1,0.1,0.2,0.1,0.4,0.1c0.2,0,0.4-0.1,0.4-0.3c0-0.2-0.1-0.3-0.3-0.3c-0.3-0.1-0.5-0.2-0.5-0.5
			c0-0.3,0.2-0.5,0.6-0.5c0.2,0,0.3,0,0.4,0.1l-0.1,0.2c-0.1,0-0.2-0.1-0.3-0.1c-0.2,0-0.3,0.1-0.3,0.3c0,0.2,0.1,0.2,0.3,0.3
			c0.3,0.1,0.4,0.3,0.4,0.5c0,0.3-0.2,0.5-0.6,0.5c-0.2,0-0.3,0-0.4-0.1L9.5,13.8z"/>
		<path class="st0" d="M11.7,13.3H11v0.6h0.7v0.2h-1v-1.7h0.9v0.2H11v0.5h0.7V13.3z"/>
		<path class="st0" d="M12.1,12.4h0.2v1.5H13v0.2h-1V12.4z"/>
		<path class="st0" d="M13.2,13.8c0.1,0.1,0.2,0.1,0.4,0.1c0.2,0,0.4-0.1,0.4-0.3c0-0.2-0.1-0.3-0.3-0.3c-0.3-0.1-0.5-0.2-0.5-0.5
			c0-0.3,0.2-0.5,0.6-0.5c0.2,0,0.3,0,0.4,0.1l-0.1,0.2c-0.1,0-0.2-0.1-0.3-0.1c-0.2,0-0.3,0.1-0.3,0.3c0,0.2,0.1,0.2,0.3,0.3
			c0.3,0.1,0.4,0.3,0.4,0.5c0,0.3-0.2,0.5-0.6,0.5c-0.2,0-0.3,0-0.4-0.1L13.2,13.8z"/>
	</g>
</g>
</svg>
