<?xml version="1.0" encoding="utf-8"?>
<!-- Generator: Adobe Illustrator 28.0.0, SVG Export Plug-In . SVG Version: 6.00 Build 0)  -->
<svg version="1.1" id="Слой_1" xmlns="http://www.w3.org/2000/svg" xmlns:xlink="http://www.w3.org/1999/xlink" x="0px" y="0px"
	 viewBox="0 0 512 512" style="enable-background:new 0 0 512 512;" xml:space="preserve">
<style type="text/css">
	.st0{fill:#013F4E;}
</style>
<path class="st0" d="M491.2,317.7c-1,24.5-8.5,47.5-20.9,64.2s-28.8,25.9-45.8,25.6H264.2c-3.5,0-6.9-2.1-9.4-5.7
	c-2.5-3.6-3.9-8.5-3.9-13.6V139c-0.1-4.2,0.7-8.5,2.3-12.1c1.6-3.6,3.9-6.5,6.6-8.2c0,0,14.8-14.7,45.8-14.7
	c19,0,37.6,7.3,53.9,21.3c12.7,10.8,23.8,25.3,32.4,42.5c8.7,17.3,14.7,36.9,17.8,57.7c5.5-2.2,11.3-3.4,17-3.4
	c8.6-0.1,17.1,2.3,25.2,7.1c8,4.8,15.1,12,21.1,20.9c6,8.9,10.7,19.4,13.9,31.1C490,293,491.5,305.3,491.2,317.7L491.2,317.7z
	 M230.9,154.8c0.1-1.1,0-2.1-0.2-3.1c-0.2-1-0.6-1.9-1.1-2.8c-0.5-0.8-1.1-1.4-1.8-1.8c-0.7-0.4-1.4-0.6-2.1-0.6s-1.5,0.2-2.1,0.6
	c-0.7,0.4-1.3,1.1-1.8,1.8s-0.9,1.7-1.1,2.8c-0.2,1.1-0.3,2-0.2,3.1c-4.4,83.7-7.8,162.2,0,245.7c0.1,1.8,0.7,3.5,1.7,4.8
	c1,1.3,2.2,1.9,3.5,1.9c1.3,0,2.5-0.6,3.5-1.9s1.5-3,1.7-4.8c8.3-84.2,4.9-161.3,0-245.7H230.9z M198.5,183.8
	c-0.1-1.9-0.8-3.7-1.8-5c-1-1.3-2.3-2-3.7-2s-2.6,0.7-3.7,2c-1,1.3-1.6,3.1-1.8,5c-5.8,72-5.8,144.8,0,216.9
	c0.2,1.9,0.9,3.6,1.8,4.8c1,1.2,2.3,1.9,3.5,1.9s2.6-0.6,3.5-1.9c1-1.3,1.6-3,1.8-4.8C204.8,328.7,204.8,255.8,198.5,183.8
	L198.5,183.8z M165.9,176.5c-0.1-1.9-0.7-3.6-1.7-4.9s-2.2-1.9-3.5-1.9c-1.3,0-2.6,0.7-3.5,1.9s-1.5,3-1.7,4.9
	c-4.9,76.4-7.5,147.8,0,224c0,2,0.5,3.9,1.5,5.3c1,1.4,2.3,2.2,3.7,2.2s2.7-0.7,3.7-2.2c1-1.5,1.5-3.3,1.5-5.3
	C173.6,323.2,171.3,253.8,165.9,176.5L165.9,176.5z M133.6,198.3c0-2-0.6-4-1.5-5.5c-1-1.5-2.4-2.2-3.8-2.2s-2.8,0.8-3.8,2.2
	s-1.5,3.4-1.5,5.5c-6,67.2-6,135.3,0,202.5c0.1,1.9,0.7,3.6,1.8,4.9c1,1.3,2.3,2,3.5,2c1.3,0,2.6-0.7,3.5-2c1-1.3,1.6-3,1.8-4.9
	C139.9,333.6,140,265.5,133.6,198.3L133.6,198.3z M100.8,248.8c0-2-0.6-4-1.5-5.4c-1-1.4-2.4-2.2-3.8-2.2c-1.4,0-2.8,0.8-3.8,2.2
	c-1,1.4-1.5,3.4-1.5,5.4c-7.7,52.2-4,99.6,0.3,152.4c0.2,1.7,0.8,3.3,1.7,4.5c0.9,1.2,2.1,1.8,3.3,1.8c1.3,0,2.4-0.6,3.3-1.8
	c1-1.2,1.5-2.7,1.7-4.5C105.4,347.7,109.1,301.4,100.8,248.8L100.8,248.8z M68.4,240.9c-0.1-1.9-0.8-3.7-1.8-5.1c-1-1.4-2.4-2-3.7-2
	c-1.3,0-2.6,0.7-3.7,2c-1,1.3-1.6,3.1-1.8,5.1C50.7,294.1,53,341,57.7,394.2c0.5,8.1,10,8,10.6,0c5.3-54,7.7-99.5,0.2-153.3
	L68.4,240.9z M35.6,267c-0.1-1.9-0.8-3.7-1.8-5.1c-1-1.4-2.4-2-3.7-2s-2.6,0.7-3.7,2c-1,1.3-1.7,3.1-1.8,5.1
	c-6.3,35.8-4.3,65.4,0.4,101.2c0.1,1.8,0.7,3.5,1.7,4.7c1,1.2,2.1,1.9,3.5,1.9s2.5-0.6,3.5-1.9s1.5-2.9,1.7-4.7
	c5.5-36.6,8.2-65.6,0.3-101.2L35.6,267z"/>
</svg>
