<?xml version="1.0" encoding="utf-8"?>
<!-- Generator: Adobe Illustrator 28.0.0, SVG Export Plug-In . SVG Version: 6.00 Build 0)  -->
<svg version="1.1" id="Слой_1" xmlns="http://www.w3.org/2000/svg" xmlns:xlink="http://www.w3.org/1999/xlink" x="0px" y="0px"
	 viewBox="0 0 512 512" style="enable-background:new 0 0 512 512;" xml:space="preserve">
<style type="text/css">
	.st0{fill:#013F4E;}
</style>
<path class="st0" d="M208,100c0-19.9,16.1-36,36-36h216c19.9,0,36,16.1,36,36v312c0,19.9-16.1,36-36,36H302c1.4-3.8,2-7.8,2-12V254
	c14-5,24-18.3,24-34v-24c0-19.9-16.1-36-36-36h-84V100z M444.5,324.5c4.7-4.6,4.7-12.3,0-16.9l-48-48c-4.6-4.7-12.3-4.7-16.9,0
	l-48,48c-4.7,4.6-4.7,12.3,0,16.9c4.6,4.7,12.3,4.7,16.9,0L376,297v91c0,6.6,5.4,12,12,12s12-5.4,12-12v-91l27.5,27.5
	C432.2,329.1,439.8,329.1,444.5,324.5L444.5,324.5z M16,196c0-6.6,5.4-12,12-12h264c6.6,0,12,5.4,12,12v24c0,6.6-5.4,12-12,12H28
	c-6.6,0-12-5.4-12-12V196z M280,256v168c0,13.3-10.7,24-24,24H64c-13.3,0-24-10.7-24-24V256H280z M124,304c-6.6,0-12,5.4-12,12
	s5.4,12,12,12h72c6.6,0,12-5.4,12-12s-5.4-12-12-12H124z"/>
</svg>
