<?xml version="1.0" encoding="utf-8"?>
<!-- Generator: Adobe Illustrator 28.0.0, SVG Export Plug-In . SVG Version: 6.00 Build 0)  -->
<svg version="1.1" id="Слой_1" xmlns="http://www.w3.org/2000/svg" xmlns:xlink="http://www.w3.org/1999/xlink" x="0px" y="0px"
	 viewBox="0 0 512 512" style="enable-background:new 0 0 512 512;" xml:space="preserve">
<style type="text/css">
	.st0{fill:#013F4E;}
	.st1{fill:#FFFFFF;}
</style>
<path class="st0" d="M481.2,278.5l-42.2-14.1V142.6c0-25.1-20.4-45.7-45.7-45.7h-45.7V66.4c0-16.9-13.7-30.5-30.5-30.5H195.3
	c-16.9,0-30.5,13.6-30.5,30.5h-0.2V97h-45.7c-25.1,0-45.7,20.4-45.7,45.7v121.8l-42.3,14.1c-22,7.4-28.2,35.7-11,51.4l96.2,88.2l0,0
	c77.3,77.3,202.6,77.3,279.9,0l0,0l96.2-88.2C509.2,314.2,503.2,285.8,481.2,278.5z M378,244.2L275.5,210c-12.6-4.2-26.1-4.2-38.6,0
	l-102.6,34.2v-86.4H378V244.2z"/>
<g>
	<path class="st1" d="M341.4,341.2c0.4,9.9-7.6,18.1-17.4,18.1h-33.8c-9.1,0-16.5,7.4-16.5,16.5v33.8c0,9.8-8.1,17.8-18.1,17.4
		c-9.5-0.3-16.8-8.4-16.8-17.8v-33.4c0-9.1-7.4-16.5-16.5-16.5h-33.8c-9.9,0-17.8-8.2-17.4-18.1c0.3-9.4,8.4-16.8,17.8-16.8h33.4
		c9.1,0,16.5-7.4,16.5-16.5v-33.8c0-9.9,8.2-17.8,18.1-17.4c9.4,0.3,16.8,8.4,16.8,17.8v33.4c0,9.1,7.4,16.5,16.5,16.5h33.4
		C333,324.4,341,331.8,341.4,341.2z"/>
</g>
</svg>
