<?xml version="1.0" encoding="utf-8"?>
<!-- Generator: Adobe Illustrator 28.0.0, SVG Export Plug-In . SVG Version: 6.00 Build 0)  -->
<svg version="1.1" id="Слой_1" xmlns="http://www.w3.org/2000/svg" xmlns:xlink="http://www.w3.org/1999/xlink" x="0px" y="0px"
	 viewBox="0 0 512 512" style="enable-background:new 0 0 512 512;" xml:space="preserve">
<style type="text/css">
	.st0{fill:#013F4E;}
</style>
<path class="st0" d="M237.6,41.2c11.9-4.3,25-4.3,37,0l164.7,58.9c21.8,7.8,36.4,28.5,36.4,51.7v208.4c0,23.2-14.6,43.9-36.5,51.7
	l-164.7,58.9c-11.9,4.3-25,4.3-37,0L72.7,411.9C51,404,36.4,383.4,36.4,360.1V151.8c0-23.2,14.6-43.9,36.5-51.7
	C72.8,100.1,237.6,41.2,237.6,41.2z M256,93l-149,53.2l149,53.2l149-53.2L256,93z M283.5,409.2l137.3-49V198.9l-137.3,49V409.2z"/>
</svg>
