<?xml version="1.0" encoding="utf-8"?>
<!-- Generator: Adobe Illustrator 28.0.0, SVG Export Plug-In . SVG Version: 6.00 Build 0)  -->
<svg version="1.1" id="Слой_1" xmlns="http://www.w3.org/2000/svg" xmlns:xlink="http://www.w3.org/1999/xlink" x="0px" y="0px"
	 viewBox="0 0 14 16" style="enable-background:new 0 0 14 16;" xml:space="preserve">
<style type="text/css">
	.st0{fill:#013F4E;}
</style>
<path class="st0" d="M2,1C0.9,1,0,1.9,0,3v10c0,1.1,0.9,2,2,2h10c1.1,0,2-0.9,2-2V5.4c0-0.5-0.2-1-0.6-1.4L11,1.6
	C10.6,1.2,10.1,1,9.6,1H2z M2,4c0-0.6,0.4-1,1-1h6c0.6,0,1,0.4,1,1v2c0,0.6-0.4,1-1,1H3C2.4,7,2,6.6,2,6V4z M7,9c1.1,0,2,0.9,2,2
	s-0.9,2-2,2s-2-0.9-2-2S5.9,9,7,9z"/>
</svg>
