<?xml version="1.0" encoding="utf-8"?>
<!-- Generator: Adobe Illustrator 28.0.0, SVG Export Plug-In . SVG Version: 6.00 Build 0)  -->
<svg version="1.1" id="Слой_1" xmlns="http://www.w3.org/2000/svg" xmlns:xlink="http://www.w3.org/1999/xlink" x="0px" y="0px"
	 viewBox="0 0 14 16" style="enable-background:new 0 0 14 16;" xml:space="preserve">
<style type="text/css">
	.st0{fill:#013F4E;}
</style>
<path class="st0" d="M2.8,6.5C3,5.9,3.3,5.3,3.8,4.8c1.8-1.8,4.6-1.8,6.3,0l0.5,0.5h-1c-0.5,0-0.9,0.4-0.9,0.9s0.4,0.9,0.9,0.9h3.1
	l0,0h0c0.5,0,0.9-0.4,0.9-0.9V3.1c0-0.5-0.4-0.9-0.9-0.9s-0.9,0.4-0.9,0.9v1l-0.5-0.5C9,1.1,5,1.1,2.6,3.6C1.9,4.2,1.4,5.1,1.1,5.9
	c-0.2,0.5,0.1,1,0.5,1.1S2.6,7,2.8,6.5L2.8,6.5z M0.9,8.9C0.8,9,0.6,9.1,0.5,9.2C0.4,9.3,0.4,9.4,0.3,9.6c0,0,0,0.1,0,0.1
	c0,0,0,0.1,0,0.1v3.1c0,0.5,0.4,0.9,0.9,0.9s0.9-0.4,0.9-0.9v-1l0.5,0.5l0,0c2.5,2.4,6.4,2.4,8.9,0c0.7-0.7,1.2-1.5,1.5-2.3
	c0.2-0.5-0.1-1-0.5-1.1c-0.5-0.2-1,0.1-1.1,0.5c-0.2,0.6-0.6,1.2-1.1,1.7c-1.8,1.8-4.6,1.8-6.3,0l0,0l-0.5-0.5h1
	c0.5,0,0.9-0.4,0.9-0.9c0-0.5-0.4-0.9-0.9-0.9H1.2c0,0-0.1,0-0.1,0C1,8.9,1,8.9,0.9,8.9z"/>
</svg>
