<?xml version="1.0" encoding="utf-8"?>
<!-- Generator: Adobe Illustrator 28.0.0, SVG Export Plug-In . SVG Version: 6.00 Build 0)  -->
<svg version="1.1" id="Слой_1" xmlns="http://www.w3.org/2000/svg" xmlns:xlink="http://www.w3.org/1999/xlink" x="0px" y="0px"
	 viewBox="0 0 640 640" style="enable-background:new 0 0 640 640;" xml:space="preserve">
<style type="text/css">
	.st0{fill:#013F4E;}
</style>
<path class="st0" d="M304.3,69H426c12.5,0,24.4,5,33.2,13.8l66.6,66.6c8.8,8.8,13.8,20.8,13.8,33.2v215.8c0,26-21.1,47.1-47.1,47.1
	H304.3c-26,0-47.1-21.1-47.1-47.1V116.1C257.2,90.1,278.3,69,304.3,69z M147.4,194.5h78.4v62.8h-62.8v251h188.2v-31.4h62.8v47.1
	c0,26-21.1,47.1-47.1,47.1H147.4c-26,0-47.1-21.1-47.1-47.1V241.6C100.4,215.6,121.5,194.5,147.4,194.5z"/>
</svg>
