<?xml version="1.0" encoding="utf-8"?>
<!-- Generator: Adobe Illustrator 28.0.0, SVG Export Plug-In . SVG Version: 6.00 Build 0)  -->
<svg version="1.1" id="Слой_1" xmlns="http://www.w3.org/2000/svg" xmlns:xlink="http://www.w3.org/1999/xlink" x="0px" y="0px"
	 viewBox="0 0 640 640" style="enable-background:new 0 0 640 640;" xml:space="preserve">
<style type="text/css">
	.st0{fill:#EB5757;}
</style>
<path class="st0" d="M554.5,155.9c19.5-19.5,19.5-51.1,0-70.5s-51.1-19.5-70.5,0L320,249.5l-164.1-164c-19.5-19.5-51.1-19.5-70.5,0
	s-19.5,51.1,0,70.5l164.1,164l-164,164.1c-19.5,19.5-19.5,51.1,0,70.5c19.5,19.5,51.1,19.5,70.5,0l164-164.1l164.1,164
	c19.5,19.5,51.1,19.5,70.5,0c19.5-19.5,19.5-51.1,0-70.5L390.5,320L554.5,155.9z"/>
</svg>
