<?xml version="1.0" encoding="utf-8"?>
<!-- Generator: Adobe Illustrator 28.0.0, SVG Export Plug-In . SVG Version: 6.00 Build 0)  -->
<svg version="1.1" id="Слой_1" xmlns="http://www.w3.org/2000/svg" xmlns:xlink="http://www.w3.org/1999/xlink" x="0px" y="0px"
	 viewBox="0 0 640 640" style="enable-background:new 0 0 640 640;" xml:space="preserve">
<style type="text/css">
	.st0{fill:#013F4E;}
</style>
<path class="st0" d="M150.9,535.3c-76.4,0-138.4-62-138.4-138.4c0-60.3,38.6-111.7,92.4-130.6c-0.1-2.6-0.2-5.2-0.2-7.8
	c0-85,68.8-153.8,153.8-153.8c57,0,106.7,30.9,133.3,77.1c14.6-9.8,32.3-15.6,51.2-15.6c50.9,0,92.3,41.3,92.3,92.3
	c0,11.7-2.2,22.9-6.2,33.2c56.1,11.3,98.4,61,98.4,120.5c0,67.9-55.1,123-123,123H150.9z M226.8,374.8l76.9,76.9c9,9,23.6,9,32.6,0
	l76.9-76.9c9-9,9-23.6,0-32.6s-23.6-9-32.6,0l-37.5,37.5V250.8c0-12.8-10.3-23.1-23.1-23.1s-23.1,10.3-23.1,23.1v128.9l-37.5-37.5
	c-9-9-23.6-9-32.6,0S217.8,365.8,226.8,374.8L226.8,374.8z"/>
</svg>
