<?xml version="1.0" encoding="utf-8"?>
<!-- Generator: Adobe Illustrator 28.0.0, SVG Export Plug-In . SVG Version: 6.00 Build 0)  -->
<svg version="1.1" id="Слой_1" xmlns="http://www.w3.org/2000/svg" xmlns:xlink="http://www.w3.org/1999/xlink" x="0px" y="0px"
	 viewBox="0 0 640 640" style="enable-background:new 0 0 640 640;" xml:space="preserve">
<style type="text/css">
	.st0{fill:#013F4E;}
</style>
<path class="st0" d="M165.2,87.8c0-42.7,34.7-77.4,77.4-77.4h193.5v154.8c0,21.4,17.3,38.7,38.7,38.7h154.8v348.4
	c0,42.7-34.7,77.4-77.4,77.4H242.6c-42.7,0-77.4-34.7-77.4-77.4V416.8h210.6l-47.2,47.2c-11.4,11.4-11.4,29.8,0,41s29.8,11.4,41,0
	l96.8-96.8c11.4-11.4,11.4-29.8,0-41l-96.8-96.8c-11.4-11.4-29.8-11.4-41,0s-11.4,29.8,0,41l47.2,47.2l-210.6,0.1V87.8z
	 M165.2,358.7v58.1H39.4c-16.1,0-29-12.9-29-29c0-16.1,12.9-29,29-29H165.2z M629.6,165.2H474.8V10.4L629.6,165.2z"/>
</svg>
