<?xml version="1.0" encoding="utf-8"?>
<!-- Generator: Adobe Illustrator 28.0.0, SVG Export Plug-In . SVG Version: 6.00 Build 0)  -->
<svg version="1.1" id="Слой_1" xmlns="http://www.w3.org/2000/svg" xmlns:xlink="http://www.w3.org/1999/xlink" x="0px" y="0px"
	 viewBox="0 0 640 640" style="enable-background:new 0 0 640 640;" xml:space="preserve">
<style type="text/css">
	.st0{fill:#013F4E;}
</style>
<path class="st0" d="M576,320c0,0.9,0,1.8,0,2.7c-0.4,36.5-33.6,61.3-70.1,61.3H408c-26.5,0-48,21.5-48,48c0,3.4,0.4,6.7,1,9.9
	c2.1,10.2,6.5,20,10.8,29.9c6.1,13.8,12.1,27.5,12.1,42c0,31.8-21.6,60.7-53.4,62c-3.5,0.1-7,0.2-10.6,0.2
	C178.6,576,64,461.4,64,320S178.6,64,320,64S576,178.6,576,320z M192,352c0-17.7-14.3-32-32-32s-32,14.3-32,32s14.3,32,32,32
	S192,369.7,192,352z M192,256c17.7,0,32-14.3,32-32s-14.3-32-32-32s-32,14.3-32,32S174.3,256,192,256z M352,160
	c0-17.7-14.3-32-32-32s-32,14.3-32,32s14.3,32,32,32S352,177.7,352,160z M448,256c17.7,0,32-14.3,32-32s-14.3-32-32-32
	s-32,14.3-32,32S430.3,256,448,256z"/>
</svg>
