<?xml version="1.0" encoding="utf-8"?>
<!-- Generator: Adobe Illustrator 28.0.0, SVG Export Plug-In . SVG Version: 6.00 Build 0)  -->
<svg version="1.1" id="Слой_1" xmlns="http://www.w3.org/2000/svg" xmlns:xlink="http://www.w3.org/1999/xlink" x="0px" y="0px"
	 viewBox="0 0 640 640" style="enable-background:new 0 0 640 640;" xml:space="preserve">
<style type="text/css">
	.st0{fill:#013F4E;}
</style>
<path class="st0" d="M70,123.6C70,94,94,70,123.6,70h107.1c29.6,0,53.6,24,53.6,53.6v107.1c0,29.6-24,53.6-53.6,53.6H123.6
	c-29.6,0-53.6-24-53.6-53.6V123.6z M141.4,141.4v71.4h71.4v-71.4H141.4z M70,409.3c0-29.6,24-53.6,53.6-53.6h107.1
	c29.6,0,53.6,24,53.6,53.6v107.1c0,29.6-24,53.6-53.6,53.6H123.6C94,570,70,546,70,516.4V409.3z M141.4,427.1v71.4h71.4v-71.4H141.4
	z M409.3,70h107.1C546,70,570,94,570,123.6v107.1c0,29.6-24,53.6-53.6,53.6H409.3c-29.6,0-53.6-24-53.6-53.6V123.6
	C355.7,94,379.7,70,409.3,70z M498.6,141.4h-71.4v71.4h71.4V141.4z M355.7,373.6c0-9.8,8-17.9,17.9-17.9H445c9.8,0,17.9,8,17.9,17.9
	c0,9.8,8,17.9,17.9,17.9h35.7c9.8,0,17.9-8,17.9-17.9c0-9.8,8-17.9,17.9-17.9s17.9,8,17.9,17.9v107.1c0,9.8-8,17.9-17.9,17.9h-71.4
	c-9.8,0-17.9-8-17.9-17.9s-8-17.9-17.9-17.9s-17.9,8-17.9,17.9v71.4c0,9.8-8,17.9-17.9,17.9h-35.7c-9.8,0-17.9-8-17.9-17.9V373.6z
	 M480.7,570c-9.9,0-17.9-8-17.9-17.9c0-9.9,8-17.9,17.9-17.9s17.9,8,17.9,17.9C498.6,562,490.6,570,480.7,570z M552.1,570
	c-9.9,0-17.9-8-17.9-17.9c0-9.9,8-17.9,17.9-17.9c9.9,0,17.9,8,17.9,17.9C570,562,562,570,552.1,570z"/>
</svg>
