<?xml version="1.0" encoding="utf-8"?>
<!-- Generator: Adobe Illustrator 28.0.0, SVG Export Plug-In . SVG Version: 6.00 Build 0)  -->
<svg version="1.1" id="Слой_1" xmlns="http://www.w3.org/2000/svg" xmlns:xlink="http://www.w3.org/1999/xlink" x="0px" y="0px"
	 viewBox="0 0 21 21.3" style="enable-background:new 0 0 21 21.3;" xml:space="preserve">
<style type="text/css">
	.st0{fill:#013F4E;}
</style>
<path class="st0" d="M7.7,3.6C7.7,2.7,8.4,2,9.4,2S11,2.7,11,3.6s-0.7,1.7-1.7,1.7S7.7,4.6,7.7,3.6z M0.8,8.9
	c0.2-0.4,0.7-0.6,1.1-0.5l0.7,0.3l0.8-1.3c0.6-1,1.6-1.5,2.7-1.5c1.8,0,3.4,1.1,4,2.9l1.2,3.6l2.8,1.2l1.2-1.6
	c0.2-0.3,0.6-0.5,0.9-0.4c0.4,0,0.7,0.2,0.9,0.5l3.4,5.6c0.2,0.3,0.2,0.8,0,1.1s-0.6,0.6-1,0.6h-8.9c-0.4,0-0.7-0.2-0.9-0.5
	c-0.2-0.3-0.2-0.7,0-1.1l0.6-1.1c0.2-0.4,0.6-0.6,1-0.6h1.1l0.8-1L1.2,10C0.8,9.8,0.6,9.3,0.8,8.9L0.8,8.9z M3.7,12.1l3.9,1.7
	c0.4,0.2,0.7,0.6,0.7,1v3.4c0,0.6-0.5,1.1-1.1,1.1S6,18.8,6,18.2v-2.6l-2.1-0.9l-1.3,3.9c-0.2,0.6-0.8,0.9-1.4,0.7
	c-0.6-0.2-0.9-0.8-0.7-1.4l1.7-5l0.4-1.2C2.5,11.6,3.7,12.1,3.7,12.1z"/>
</svg>
