<?xml version="1.0" encoding="utf-8"?>
<!-- Generator: Adobe Illustrator 28.0.0, SVG Export Plug-In . SVG Version: 6.00 Build 0)  -->
<svg version="1.1" id="Слой_1" xmlns="http://www.w3.org/2000/svg" xmlns:xlink="http://www.w3.org/1999/xlink" x="0px" y="0px"
	 viewBox="0 0 14 16" style="enable-background:new 0 0 14 16;" xml:space="preserve">
<g>
	<g>
		<path d="M10.8,15H3.2c-1.5,0-2.7-1.2-2.7-2.7V3.7C0.6,2.2,1.8,1,3.2,1h7.5c1.5,0,2.7,1.2,2.7,2.7v8.7C13.4,13.8,12.2,15,10.8,15z
			 M3.2,2.1c-0.8,0-1.5,0.7-1.5,1.5v8.7c0,0.8,0.7,1.5,1.5,1.5h7.5c0.8,0,1.5-0.7,1.5-1.5V3.7c0-0.8-0.7-1.5-1.5-1.5H3.2z"/>
	</g>
	<g>
		<path d="M10.9,12H3.1c-0.3,0-0.6-0.3-0.6-0.6c0-0.3,0.3-0.6,0.6-0.6h7.8c0.3,0,0.6,0.3,0.6,0.6C11.5,11.8,11.2,12,10.9,12z"/>
	</g>
	<g>
		<path d="M10.9,9.1H3.1c-0.3,0-0.6-0.3-0.6-0.6S2.8,8,3.1,8h7.8c0.3,0,0.6,0.3,0.6,0.6S11.2,9.1,10.9,9.1z"/>
	</g>
	<g>
		<path d="M10.9,6.1H3.1c-0.3,0-0.6-0.3-0.6-0.6s0.3-0.6,0.6-0.6h7.8c0.3,0,0.6,0.3,0.6,0.6S11.2,6.1,10.9,6.1z"/>
	</g>
</g>
</svg>
