<?xml version="1.0" encoding="utf-8"?>
<!-- Generator: Adobe Illustrator 28.0.0, SVG Export Plug-In . SVG Version: 6.00 Build 0)  -->
<svg version="1.1" id="Слой_1" xmlns="http://www.w3.org/2000/svg" xmlns:xlink="http://www.w3.org/1999/xlink" x="0px" y="0px"
	 viewBox="0 0 14.2 14.2" style="enable-background:new 0 0 14.2 14.2;" xml:space="preserve">
<style type="text/css">
	.st0{fill:#013F4E;}
</style>
<path class="st0" d="M11.3,5.8c0,1.2-0.4,2.3-1,3.2l3.3,3.3c0.3,0.3,0.3,0.9,0,1.2c-0.3,0.3-0.9,0.3-1.2,0L9,10.2
	c-0.9,0.7-2,1-3.2,1c-3,0-5.4-2.4-5.4-5.4s2.4-5.4,5.4-5.4S11.3,2.8,11.3,5.8z M5.8,9.6c2.1,0,3.8-1.7,3.8-3.8S7.9,2.1,5.8,2.1
	S2.1,3.8,2.1,5.8S3.8,9.6,5.8,9.6z"/>
</svg>
