<?xml version="1.0" encoding="utf-8"?>
<!-- Generator: Adobe Illustrator 28.0.0, SVG Export Plug-In . SVG Version: 6.00 Build 0)  -->
<svg version="1.1" id="Слой_1" xmlns="http://www.w3.org/2000/svg" xmlns:xlink="http://www.w3.org/1999/xlink" x="0px" y="0px"
	 viewBox="0 0 640 640" style="enable-background:new 0 0 640 640;" xml:space="preserve">
<style type="text/css">
	.st0{fill:#013F4E;}
</style>
<path class="st0" d="M512.6,262.2c0,55.2-17.9,106.3-48.1,147.7l152.4,152.5c15,15,15,39.5,0,54.5c-15,15-39.5,15-54.5,0
	L409.9,464.4c-41.4,30.3-92.4,48.1-147.7,48.1C124,512.5,11.9,400.5,11.9,262.2S124,11.8,262.2,11.8S512.6,123.9,512.6,262.2z
	 M233.4,368.1c0,16,12.9,28.9,28.9,28.9s28.9-12.9,28.9-28.9v-77h77c16,0,28.9-12.9,28.9-28.9s-12.9-28.9-28.9-28.9h-77v-77
	c0-16-12.9-28.9-28.9-28.9s-28.9,12.9-28.9,28.9v77h-77c-16,0-28.9,12.9-28.9,28.9s12.9,28.9,28.9,28.9h77V368.1z"/>
</svg>
