<?xml version="1.0" encoding="UTF-8"?>
<svg id="_Слой_1" data-name="Слой 1" xmlns="http://www.w3.org/2000/svg" viewBox="0 0 16 16">
  <defs>
    <style>
      .cls-1 {
        fill: #013f4e;
        stroke-width: 0px;
      }
    </style>
  </defs>
  <g>
    <path class="cls-1" d="m13.8,2.7H2.2c-.2,0-.4-.2-.4-.4s.2-.4.4-.4h11.6c.2,0,.4.2.4.4s-.2.4-.4.4Z"/>
    <path class="cls-1" d="m11.8,5.4H2.2c-.2,0-.4-.2-.4-.4s.2-.4.4-.4h9.6c.2,0,.4.2.4.4s-.2.4-.4.4Z"/>
    <path class="cls-1" d="m9,8.1H2.2c-.2,0-.4-.2-.4-.4s.2-.4.4-.4h6.8c.2,0,.4.2.4.4s-.2.4-.4.4Z"/>
    <path class="cls-1" d="m9,10.8H2.2c-.2,0-.4-.2-.4-.4s.2-.4.4-.4h6.8c.2,0,.4.2.4.4s-.2.4-.4.4Z"/>
    <path class="cls-1" d="m14,10.4c.1.1.1.3,0,.4-.1,0-.1.1-.2.1s-.1,0-.2-.1l-1.45-1.45-1.45,1.45c-.1,0-.1.1-.2.1s-.1,0-.2-.1c-.1-.1-.1-.3,0-.4l1.45-1.45-1.45-1.45c-.1-.1-.1-.3,0-.4s.3-.1.4,0l1.45,1.45,1.45-1.45c.1-.1.3-.1.4,0,.1.1.1.3,0,.4l-1.45,1.45,1.45,1.45Z"/>
  </g>
  <g>
    <path class="cls-1" d="m.79,12.55h.61l.74.93h0v-.93h.39v1.28h-.61l-.74-.93h0v.93h-.39v-1.28Z"/>
    <path class="cls-1" d="m2.77,13c0-.09.01-.17.04-.23.03-.06.06-.11.11-.14.05-.04.11-.06.18-.07.07-.01.15-.02.24-.02h.63c.09,0,.17,0,.24.02.07.01.13.04.18.07.05.03.09.08.11.14.03.06.04.14.04.23v.38c0,.09-.01.17-.04.23-.03.06-.06.11-.11.14-.05.04-.11.06-.18.07-.07.01-.15.02-.24.02h-.63c-.09,0-.17,0-.24-.02-.07-.01-.13-.04-.18-.07-.05-.03-.09-.08-.11-.14-.03-.06-.04-.14-.04-.23v-.38Zm.4.26s0,.09,0,.12c0,.03.02.06.03.08.02.02.04.03.07.04.03,0,.07.01.11.01h.5s.08,0,.11-.01c.03,0,.05-.02.07-.04.02-.02.03-.05.03-.08,0-.03,0-.07,0-.12v-.14s0-.08,0-.11c0-.03-.02-.06-.04-.08-.02-.02-.04-.04-.07-.05-.03-.01-.07-.02-.13-.02h-.46c-.05,0-.09,0-.13.02-.03.01-.06.03-.07.05-.02.02-.03.05-.04.08,0,.03,0,.07,0,.11v.14Z"/>
    <path class="cls-1" d="m5.51,12.55h.38l.27.94h0l.33-.94h.36l.33.94h0l.27-.94h.38l-.42,1.28h-.45l-.3-.84h0l-.3.84h-.45l-.41-1.28Z"/>
    <path class="cls-1" d="m7.96,13c0-.09.01-.17.04-.23.03-.06.06-.11.11-.14.05-.04.11-.06.18-.07.07-.01.15-.02.24-.02h.63c.09,0,.17,0,.24.02.07.01.13.04.18.07.05.03.09.08.11.14.03.06.04.14.04.23v.38c0,.09-.01.17-.04.23-.03.06-.06.11-.11.14-.05.04-.11.06-.18.07-.07.01-.15.02-.24.02h-.63c-.09,0-.17,0-.24-.02-.07-.01-.13-.04-.18-.07-.05-.03-.09-.08-.11-.14-.03-.06-.04-.14-.04-.23v-.38Zm.4.26s0,.09,0,.12c0,.03.02.06.03.08.02.02.04.03.07.04.03,0,.07.01.11.01h.5s.08,0,.11-.01c.03,0,.05-.02.07-.04.02-.02.03-.05.03-.08,0-.03,0-.07,0-.12v-.14s0-.08,0-.11c0-.03-.02-.06-.04-.08-.02-.02-.04-.04-.07-.05-.03-.01-.07-.02-.13-.02h-.46c-.05,0-.09,0-.13.02-.03.01-.06.03-.07.05-.02.02-.03.05-.04.08,0,.03,0,.07,0,.11v.14Z"/>
    <path class="cls-1" d="m9.95,12.55h1.18c.08,0,.14,0,.19.03.05.02.09.04.12.08.03.03.05.07.06.12.01.05.02.1.02.16v.08s0,.08,0,.11c0,.03-.02.06-.03.09s-.04.05-.07.07-.07.03-.11.04h0s.06.02.08.03c.03.01.05.03.07.05.02.02.03.05.05.08.01.03.02.08.02.13v.22h-.39v-.15c0-.07-.01-.11-.03-.14s-.06-.04-.13-.04h-.62v.33h-.39v-1.28Zm.39.63h.65c.05,0,.09-.01.11-.03s.03-.06.03-.1v-.04c0-.06-.01-.09-.04-.11-.03-.02-.07-.02-.14-.02h-.61v.31Z"/>
    <path class="cls-1" d="m11.79,12.55h.39v.47h.18l.49-.47h.53l-.69.63.77.65h-.56l-.57-.49h-.17v.49h-.39v-1.28Z"/>
    <path class="cls-1" d="m13.6,13.41h.39s0,.06.01.08.02.03.03.04c.01,0,.03.02.05.02s.05,0,.07,0h.48s.04,0,.06,0c.02,0,.04,0,.05-.01.02,0,.03-.02.04-.03,0-.01.01-.03.01-.06,0-.03,0-.05-.01-.07-.01-.02-.03-.03-.07-.04-.04,0-.09-.01-.17-.01s-.17,0-.3,0c-.15,0-.26,0-.35-.02s-.15-.03-.2-.06c-.04-.03-.07-.07-.09-.12-.01-.05-.02-.11-.02-.19,0-.06,0-.11.01-.16s.03-.09.06-.13c.03-.04.09-.07.15-.09.07-.02.17-.03.29-.03h.55c.11,0,.2,0,.27.03.07.02.12.04.15.08.03.03.06.07.06.12,0,.05.01.1.01.15v.04h-.39s0-.04,0-.06-.01-.03-.02-.04c-.01-.01-.03-.02-.06-.02s-.06,0-.11,0h-.43s-.08,0-.11.02c-.03.02-.04.04-.04.08,0,.03,0,.05.01.07,0,.01.03.03.06.03s.08.01.14.01c.06,0,.14,0,.25,0,.15,0,.28,0,.37.01s.17.02.23.05.09.07.12.12.03.13.03.22c0,.09,0,.16-.03.21s-.05.09-.1.12-.11.05-.19.06c-.08,0-.19.01-.32.01h-.48c-.09,0-.17,0-.23-.02-.06,0-.11-.03-.15-.05-.04-.03-.07-.06-.09-.1-.02-.04-.03-.1-.03-.17v-.09Z"/>
  </g>
</svg>